<svg width="374" height="137" viewBox="0 0 374 137" fill="none" xmlns="http://www.w3.org/2000/svg">
<path d="M130.84 2.08044C120.226 7.90189 111.323 16.4046 105.02 26.7404H66.72H58.29L66.73 37.4604V133.74H38.49V26.7404H0V2.08044H130.84Z" fill="#080A09"/>
<path d="M373.36 103.39C363.89 119.74 347.29 135.74 318.29 135.74C292.12 135.74 271.79 127.42 260.06 108.02C267.47 97.9505 270.73 81.4805 271.91 73.7205C277.5 92.4805 298.77 110.87 318.29 110.87C324.708 110.803 330.987 108.985 336.449 105.614C341.911 102.244 346.351 97.4469 349.29 91.7405L373.36 103.39Z" fill="#080A09"/>
<path d="M210.29 29.8705C211.29 31.2205 212.38 32.5205 213.29 33.9305C214.319 35.3391 215.229 36.8309 216.01 38.3904C216.524 39.6851 216.919 41.024 217.19 42.3904C213.02 39.3404 211.74 34.5804 209.49 30.3904L210.29 29.8705ZM310.07 4.74045C280.68 4.74045 258.73 21.5204 246.71 50.2104C227.71 95.5304 216.84 99.6204 210.71 103.97C201.921 108.795 192.046 111.294 182.02 111.23C158.14 111.23 140.77 92.8704 140.77 67.9904C140.725 62.2778 141.524 56.5899 143.14 51.1104C143.856 51.6343 144.653 52.0363 145.5 52.3004C145.61 52.1904 145.71 52.0705 145.81 51.9505C146.164 52.0542 146.525 52.1343 146.89 52.1904C147.76 53.9004 147.66 54.6704 146.25 55.9604C144.84 57.2505 145.76 58.8005 145.09 60.0905C145 60.2605 145.29 60.6604 145.45 60.9104C145.93 61.6004 146.5 62.2504 146.91 62.9704C147.85 64.6604 148.56 66.4704 150.62 67.2704C151.07 67.4465 151.448 67.7669 151.696 68.1813C151.944 68.5958 152.048 69.0809 151.99 69.5605C151.86 71.6905 151.88 73.8205 151.83 75.9505C151.83 77.2605 151.73 78.5805 151.71 79.9005C151.71 81.7404 151.71 83.6004 151.71 85.7404C151.98 85.1604 152.12 84.8404 152.27 84.5304C152.06 85.6904 153.27 87.1305 151.9 87.7605C152.01 88.6605 152.09 89.4105 152.16 90.1505C152.16 90.3805 152.16 90.7005 152.3 90.8105C153.74 91.8105 153.23 94.1604 155.35 94.9204C156.64 95.3904 157.08 95.8304 158.27 94.6904C155.85 93.4404 155.39 91.9504 156.76 89.5704C157.12 88.9504 157.17 88.5704 156.46 88.2104C155.75 87.8504 155.66 87.3305 156.46 86.8204C156.7 86.6704 156.8 86.3305 156.93 86.0405C157.12 85.5905 157.28 85.1104 157.47 84.6104L156.47 83.6104H158.1C158.16 83.0704 158.21 82.6105 158.28 82.0704C161.01 81.7804 161.28 81.4305 160.68 79.3504C161.448 79.0678 162.167 78.6663 162.81 78.1604C163.562 77.16 164.231 76.0998 164.81 74.9904C164.98 74.7004 165.3 74.3404 165.22 74.1104C164.59 71.9504 166.58 71.2004 167.61 71.0504C169.73 70.7304 170.03 69.3805 170.22 67.9005C170.34 65.848 171.142 63.8945 172.5 62.3504C172.664 61.9895 172.73 61.5922 172.693 61.1976C172.657 60.803 172.518 60.4249 172.29 60.1004C171.016 59.4051 169.676 58.8389 168.29 58.4104C167.77 58.2004 167.29 58.0005 166.7 57.8405C165.5 57.4905 164.3 57.1705 163.15 56.8405C163.24 56.7305 163.51 56.3504 163.75 56.0304C163.11 54.5704 162.44 53.3405 160.67 53.1004C159.833 52.8794 159.039 52.5212 158.32 52.0405C157.333 51.4313 156.315 50.8739 155.27 50.3705C154.69 50.1405 153.92 50.4405 153.27 50.3705C152.485 50.1861 151.713 49.9489 150.96 49.6604C150.96 49.5904 151.02 49.3604 151.11 48.9104C150.25 49.5304 149.51 50.0404 148.83 50.5204C148.565 50.0204 148.228 49.5621 147.83 49.1604C147.06 48.4304 146.26 47.9004 146.27 46.7404C146.28 45.5804 147 44.7404 146.89 43.5804C146.86 43.2348 146.773 42.8967 146.63 42.5804C146.83 42.2104 147.03 41.8205 147.24 41.4505C147.59 40.8305 147.95 40.2304 148.34 39.6404C148.88 38.7904 149.45 37.9605 150.07 37.1505C150.69 36.3405 151.2 35.6604 151.81 34.9404C152.901 33.7073 154.063 32.5386 155.29 31.4404C155.396 31.329 155.509 31.2254 155.63 31.1304C156.48 30.3404 157.38 29.5804 158.31 28.8604C158.78 28.4804 159.31 28.1204 159.76 27.7704C161.042 26.8181 162.378 25.94 163.76 25.1404C164.12 24.9204 164.49 24.7004 164.88 24.4904C169.799 21.81 175.051 19.7925 180.5 18.4904C181.84 18.1704 183.15 17.9004 184.5 17.6704C184.651 18.0132 184.821 18.3471 185.01 18.6704C185.264 19.1704 185.631 19.6049 186.08 19.9404C186.593 20.2298 187.171 20.3846 187.76 20.3904C189.86 20.5204 191.91 19.8604 194.02 19.7104C195.18 19.6304 196.65 19.9404 196.94 21.0804C197.23 22.2204 195.94 23.5504 196.47 24.6604C196.659 24.9932 196.927 25.2747 197.25 25.4805C197.85 25.9405 198.47 26.3904 199.1 26.8204C199.087 27.0069 199.087 27.194 199.1 27.3804C199.1 28.3804 198.56 28.3804 197.79 27.9304C196.57 27.2704 195.32 26.6404 194.07 26.0704C193.37 25.7704 192.62 25.6304 191.9 25.4004C192.075 25.2885 192.242 25.1649 192.4 25.0304C192.11 24.1704 191.73 22.5704 191.5 22.5704C189.153 22.7459 186.816 23.043 184.5 23.4604C183.17 23.6804 181.85 23.9904 180.17 24.3204C179.3 25.5304 177.17 26.6004 177.05 29.0304C177.05 29.2904 176.59 29.6004 176.29 29.7404C174.08 30.7404 173.29 32.9404 172.12 34.8204C172.025 35.1449 172.001 35.486 172.05 35.8204C172.05 37.1404 171.98 38.4705 172.05 39.8204C172.133 40.8905 172.397 41.9386 172.83 42.9204C173.366 43.974 174.091 44.9198 174.97 45.7104C176.22 46.8104 177.6 48.3105 179.06 48.4505C181.14 48.6705 183.37 47.8805 185.49 47.4505C186.67 47.2005 187.72 46.7805 188.49 48.2005C188.67 48.5305 189.38 48.6904 189.84 48.7104C191.73 48.7104 191.93 49.0805 191.62 50.9805C191.47 51.9805 191.26 53.4305 191.79 53.9805C193.375 55.5745 194.33 57.6876 194.48 59.9305C194.46 60.5868 194.346 61.2369 194.14 61.8604C193.83 63.2804 193.08 64.7804 193.29 66.1104C193.76 68.2062 194.43 70.2522 195.29 72.2204C195.48 72.8304 195.79 73.4105 196.01 74.0405C196.46 75.3104 196.8 76.6304 197.32 77.8904C197.57 78.4704 198.22 79.4404 198.53 79.3904C201.27 78.8304 204.21 79.1404 206.41 76.5504C207.97 74.7304 208.03 71.8904 210.54 70.7804C210.79 70.6804 210.93 69.7804 210.76 69.4204C209.76 67.1604 211.51 66.3604 212.85 65.5204C215.14 64.0404 215.67 62.1204 214.61 59.5204C213.89 57.7404 213.61 55.7805 215.22 54.2005C216.57 52.8205 218.03 51.5405 219.45 50.2005C221.554 48.3419 222.924 45.7913 223.31 43.0105C221.71 43.3305 220.31 43.5404 219.02 43.8904C217.73 44.2404 217.2 43.8204 217.28 42.5304C217.99 42.2604 218.7 41.9804 219.41 41.7204C222.96 40.4404 226.41 39.1104 228.69 35.7204C229.48 34.5604 229 34.0005 228.13 33.4005C227.44 32.9205 226.76 32.4004 226.13 31.9304L223.45 33.3604C222.78 32.4804 222.17 31.6904 221.6 30.9604C222.156 30.8494 222.69 30.6466 223.18 30.3604C224.25 29.7104 225.06 28.6304 226.18 28.1404C226.796 27.9733 227.392 27.7421 227.96 27.4505C228.31 27.2012 228.579 26.853 228.73 26.4505C231.657 28.1107 234.437 30.0176 237.04 32.1505C227.78 15.7705 211.04 0.000448307 181.97 0.000448307C175.185 -0.0224865 168.425 0.834657 161.86 2.55044C159.44 3.18316 157.054 3.93746 154.71 4.81045L153.07 5.46045C142.38 9.7154 132.999 16.7098 125.87 25.7404C117.08 37.0004 111.93 51.4304 111.93 68.0304C111.93 108.5 142.54 136.14 182.01 136.14C206.01 136.14 221.55 133.96 246.25 105.83C271.46 77.1404 255.67 21.5504 321.25 22.9204C338.58 23.2804 364.31 36.5404 365.11 36.9204C355.86 20.5604 339.08 4.74045 310.07 4.74045Z" fill="#080A09"/>
</svg>
