<svg width="1000" height="350" viewBox="0 0 1000 350" fill="none" xmlns="http://www.w3.org/2000/svg">
<path d="M194.84 78.0804C184.226 83.9019 175.323 92.4046 169.02 102.74H130.72H122.29L130.73 113.46V209.74H102.49V102.74H64V78.0804H194.84Z" fill="#080A09"/>
<path d="M437.36 179.39C427.89 195.74 411.29 211.74 382.29 211.74C356.12 211.74 335.79 203.42 324.06 184.02C331.47 173.95 334.73 157.48 335.91 149.72C341.5 168.48 362.77 186.87 382.29 186.87C388.708 186.803 394.987 184.985 400.449 181.614C405.911 178.244 410.351 173.447 413.29 167.74L437.36 179.39Z" fill="#080A09"/>
<path d="M274.29 105.87C275.29 107.22 276.38 108.52 277.29 109.93C278.319 111.339 279.229 112.831 280.01 114.39C280.524 115.685 280.919 117.024 281.19 118.39C277.02 115.34 275.74 110.58 273.49 106.39L274.29 105.87ZM374.07 80.7404C344.68 80.7404 322.73 97.5204 310.71 126.21C291.71 171.53 280.84 175.62 274.71 179.97C265.921 184.795 256.046 187.294 246.02 187.23C222.14 187.23 204.77 168.87 204.77 143.99C204.725 138.278 205.524 132.59 207.14 127.11C207.856 127.634 208.653 128.036 209.5 128.3C209.61 128.19 209.71 128.07 209.81 127.95C210.164 128.054 210.525 128.134 210.89 128.19C211.76 129.9 211.66 130.67 210.25 131.96C208.84 133.25 209.76 134.8 209.09 136.09C209 136.26 209.29 136.66 209.45 136.91C209.93 137.6 210.5 138.25 210.91 138.97C211.85 140.66 212.56 142.47 214.62 143.27C215.07 143.446 215.448 143.767 215.696 144.181C215.944 144.596 216.048 145.081 215.99 145.56C215.86 147.69 215.88 149.82 215.83 151.95C215.83 153.26 215.73 154.58 215.71 155.9C215.71 157.74 215.71 159.6 215.71 161.74C215.98 161.16 216.12 160.84 216.27 160.53C216.06 161.69 217.27 163.13 215.9 163.76C216.01 164.66 216.09 165.41 216.16 166.15C216.16 166.38 216.16 166.7 216.3 166.81C217.74 167.81 217.23 170.16 219.35 170.92C220.64 171.39 221.08 171.83 222.27 170.69C219.85 169.44 219.39 167.95 220.76 165.57C221.12 164.95 221.17 164.57 220.46 164.21C219.75 163.85 219.66 163.33 220.46 162.82C220.7 162.67 220.8 162.33 220.93 162.04C221.12 161.59 221.28 161.11 221.47 160.61L220.47 159.61H222.1C222.16 159.07 222.21 158.61 222.28 158.07C225.01 157.78 225.28 157.43 224.68 155.35C225.448 155.068 226.167 154.666 226.81 154.16C227.562 153.16 228.231 152.1 228.81 150.99C228.98 150.7 229.3 150.34 229.22 150.11C228.59 147.95 230.58 147.2 231.61 147.05C233.73 146.73 234.03 145.38 234.22 143.9C234.34 141.848 235.142 139.894 236.5 138.35C236.664 137.989 236.73 137.592 236.693 137.198C236.657 136.803 236.518 136.425 236.29 136.1C235.016 135.405 233.676 134.839 232.29 134.41C231.77 134.2 231.29 134 230.7 133.84C229.5 133.49 228.3 133.17 227.15 132.84C227.24 132.73 227.51 132.35 227.75 132.03C227.11 130.57 226.44 129.34 224.67 129.1C223.833 128.879 223.039 128.521 222.32 128.04C221.333 127.431 220.315 126.874 219.27 126.37C218.69 126.14 217.92 126.44 217.27 126.37C216.485 126.186 215.713 125.949 214.96 125.66C214.96 125.59 215.02 125.36 215.11 124.91C214.25 125.53 213.51 126.04 212.83 126.52C212.565 126.02 212.228 125.562 211.83 125.16C211.06 124.43 210.26 123.9 210.27 122.74C210.28 121.58 211 120.74 210.89 119.58C210.86 119.235 210.773 118.897 210.63 118.58C210.83 118.21 211.03 117.82 211.24 117.45C211.59 116.83 211.95 116.23 212.34 115.64C212.88 114.79 213.45 113.96 214.07 113.15C214.69 112.34 215.2 111.66 215.81 110.94C216.901 109.707 218.063 108.539 219.29 107.44C219.396 107.329 219.509 107.225 219.63 107.13C220.48 106.34 221.38 105.58 222.31 104.86C222.78 104.48 223.31 104.12 223.76 103.77C225.042 102.818 226.378 101.94 227.76 101.14C228.12 100.92 228.49 100.7 228.88 100.49C233.799 97.81 239.051 95.7925 244.5 94.4904C245.84 94.1704 247.15 93.9004 248.5 93.6704C248.651 94.0132 248.821 94.3471 249.01 94.6704C249.264 95.1704 249.631 95.6049 250.08 95.9404C250.593 96.2298 251.171 96.3846 251.76 96.3904C253.86 96.5204 255.91 95.8604 258.02 95.7104C259.18 95.6304 260.65 95.9404 260.94 97.0804C261.23 98.2204 259.94 99.5504 260.47 100.66C260.659 100.993 260.927 101.275 261.25 101.48C261.85 101.94 262.47 102.39 263.1 102.82C263.087 103.007 263.087 103.194 263.1 103.38C263.1 104.38 262.56 104.38 261.79 103.93C260.57 103.27 259.32 102.64 258.07 102.07C257.37 101.77 256.62 101.63 255.9 101.4C256.075 101.288 256.242 101.165 256.4 101.03C256.11 100.17 255.73 98.5704 255.5 98.5704C253.153 98.7459 250.816 99.043 248.5 99.4604C247.17 99.6804 245.85 99.9904 244.17 100.32C243.3 101.53 241.17 102.6 241.05 105.03C241.05 105.29 240.59 105.6 240.29 105.74C238.08 106.74 237.29 108.94 236.12 110.82C236.025 111.145 236.001 111.486 236.05 111.82C236.05 113.14 235.98 114.47 236.05 115.82C236.133 116.89 236.397 117.939 236.83 118.92C237.366 119.974 238.091 120.92 238.97 121.71C240.22 122.81 241.6 124.31 243.06 124.45C245.14 124.67 247.37 123.88 249.49 123.45C250.67 123.2 251.72 122.78 252.49 124.2C252.67 124.53 253.38 124.69 253.84 124.71C255.73 124.71 255.93 125.08 255.62 126.98C255.47 127.98 255.26 129.43 255.79 129.98C257.375 131.575 258.33 133.688 258.48 135.93C258.46 136.587 258.346 137.237 258.14 137.86C257.83 139.28 257.08 140.78 257.29 142.11C257.76 144.206 258.43 146.252 259.29 148.22C259.48 148.83 259.79 149.41 260.01 150.04C260.46 151.31 260.8 152.63 261.32 153.89C261.57 154.47 262.22 155.44 262.53 155.39C265.27 154.83 268.21 155.14 270.41 152.55C271.97 150.73 272.03 147.89 274.54 146.78C274.79 146.68 274.93 145.78 274.76 145.42C273.76 143.16 275.51 142.36 276.85 141.52C279.14 140.04 279.67 138.12 278.61 135.52C277.89 133.74 277.61 131.78 279.22 130.2C280.57 128.82 282.03 127.54 283.45 126.2C285.554 124.342 286.924 121.791 287.31 119.01C285.71 119.33 284.31 119.54 283.02 119.89C281.73 120.24 281.2 119.82 281.28 118.53C281.99 118.26 282.7 117.98 283.41 117.72C286.96 116.44 290.41 115.11 292.69 111.72C293.48 110.56 293 110 292.13 109.4C291.44 108.92 290.76 108.4 290.13 107.93L287.45 109.36C286.78 108.48 286.17 107.69 285.6 106.96C286.156 106.849 286.69 106.647 287.18 106.36C288.25 105.71 289.06 104.63 290.18 104.14C290.796 103.973 291.392 103.742 291.96 103.45C292.31 103.201 292.579 102.853 292.73 102.45C295.657 104.111 298.437 106.018 301.04 108.15C291.78 91.7705 275.04 76.0004 245.97 76.0004C239.185 75.9775 232.425 76.8347 225.86 78.5504C223.44 79.1832 221.054 79.9375 218.71 80.8104L217.07 81.4604C206.38 85.7154 196.999 92.7098 189.87 101.74C181.08 113 175.93 127.43 175.93 144.03C175.93 184.5 206.54 212.14 246.01 212.14C270.01 212.14 285.55 209.96 310.25 181.83C335.46 153.14 319.67 97.5504 385.25 98.9204C402.58 99.2804 428.31 112.54 429.11 112.92C419.86 96.5604 403.08 80.7404 374.07 80.7404Z" fill="#080A09"/>
<path d="M74.38 273.74V247.74H64.1V240.23H94.1V247.74H83.85V273.74H74.38Z" fill="#0A52D2"/>
<path d="M107 266.41H124.51V273.74H97.63V240.25H123.88V247.57H107V266.41ZM106.33 253.21H121.88V260.29H106.33V253.21Z" fill="#0A52D2"/>
<path d="M129.77 273.74V240.25H145.07C147.788 240.188 150.489 240.696 153 241.74C155.094 242.635 156.88 244.123 158.14 246.02C159.396 247.996 160.043 250.298 160 252.64C160.083 254.933 159.455 257.196 158.202 259.119C156.948 261.041 155.132 262.53 153 263.38C150.488 264.403 147.792 264.897 145.08 264.83H135L139.21 260.83V273.74H129.77ZM139.24 261.88L135 257.52H144.47C146.051 257.641 147.623 257.183 148.89 256.23C149.382 255.775 149.767 255.217 150.019 254.597C150.272 253.977 150.385 253.308 150.35 252.64C150.389 251.963 150.278 251.286 150.025 250.657C149.773 250.028 149.385 249.462 148.89 249C147.626 248.064 146.067 247.617 144.5 247.74H135L139.21 243.39L139.24 261.88ZM150.48 273.74L142.15 261.54H152.25L160.61 273.74H150.48Z" fill="#0A52D2"/>
<path d="M165.16 273.74V240.25H173L186.87 263.02H182.76L196.25 240.25H204L204.1 273.73H195.39L195.3 253.5H196.78L186.69 270.43H182.48L172.1 253.5H173.92V273.74H165.16Z" fill="#0A52D2"/>
<path d="M210.78 273.74V240.25H220.25V273.74H210.78Z" fill="#0A52D2"/>
<path d="M227 273.74V240.25H234.79L253.25 262.54H249.57V240.25H258.85V273.74H251.05L232.59 251.44H236.27V273.74H227Z" fill="#0A52D2"/>
<path d="M261.53 273.74L276.3 240.26H285.63L300.46 273.74H290.6L279 244.89H282.73L271.19 273.74H261.53ZM269.61 267.24L272.05 260.24H288.4L290.84 267.24H269.61Z" fill="#0A52D2"/>
<path d="M303.13 273.74V240.25H312.6V266.25H328.6V273.74H303.13Z" fill="#0A52D2"/>
<path d="M362.91 274.4C360.407 274.425 357.919 273.995 355.57 273.13C353.402 272.333 351.419 271.105 349.74 269.52C348.096 267.959 346.786 266.081 345.89 264C344.042 259.516 344.042 254.483 345.89 250C346.786 247.918 348.096 246.04 349.74 244.48C351.419 242.894 353.402 241.666 355.57 240.87C357.921 240.009 360.407 239.579 362.91 239.6C365.761 239.549 368.59 240.104 371.21 241.23C373.595 242.269 375.689 243.875 377.31 245.91L371.31 251.37C370.327 250.172 369.117 249.179 367.75 248.45C366.41 247.769 364.923 247.426 363.42 247.45C362.132 247.433 360.853 247.66 359.65 248.12C358.537 248.539 357.53 249.198 356.7 250.05C355.874 250.916 355.225 251.935 354.79 253.05C353.87 255.582 353.87 258.357 354.79 260.89C355.225 262.004 355.874 263.024 356.7 263.89C357.533 264.741 358.539 265.402 359.65 265.83C360.854 266.284 362.133 266.512 363.42 266.5C364.923 266.523 366.409 266.18 367.75 265.5C369.117 264.77 370.327 263.778 371.31 262.58L377.31 268.04C375.674 270.054 373.584 271.651 371.21 272.7C368.596 273.853 365.766 274.432 362.91 274.4Z" fill="#0A52D2"/>
<path d="M396.63 274.4C391.69 274.4 387.833 273.043 385.06 270.33C382.287 267.616 380.9 263.776 380.9 258.81V240.25H390.37V258.52C390.37 261.39 390.93 263.45 392.07 264.69C393.321 265.889 394.987 266.558 396.72 266.558C398.453 266.558 400.119 265.889 401.37 264.69C402.483 263.45 403.04 261.393 403.04 258.52V240.25H412.37V258.81C412.37 263.783 410.983 267.623 408.21 270.33C405.437 273.036 401.577 274.393 396.63 274.4Z" fill="#0A52D2"/>
<path d="M430.54 274.4C427.871 274.42 425.21 274.083 422.63 273.4C420.432 272.863 418.337 271.968 416.43 270.75L419.54 263.75C421.158 264.764 422.903 265.561 424.73 266.12C426.624 266.73 428.6 267.043 430.59 267.05C431.654 267.077 432.717 266.959 433.75 266.7C434.408 266.526 435.008 266.181 435.49 265.7C435.851 265.32 436.048 264.814 436.04 264.29C436.044 263.92 435.949 263.556 435.764 263.236C435.58 262.915 435.312 262.651 434.99 262.47C434.143 261.963 433.222 261.591 432.26 261.37C431.15 261.08 429.91 260.8 428.56 260.51C427.184 260.218 425.825 259.851 424.49 259.41C423.184 258.985 421.938 258.397 420.78 257.66C419.561 256.905 418.567 255.837 417.902 254.567C417.237 253.297 416.925 251.871 417 250.44C416.979 248.497 417.555 246.595 418.65 244.99C419.897 243.24 421.613 241.878 423.6 241.06C426.207 239.999 429.007 239.495 431.82 239.58C434.001 239.579 436.175 239.827 438.3 240.32C440.287 240.765 442.197 241.499 443.97 242.5L441.05 249.5C439.552 248.676 437.965 248.025 436.32 247.56C434.839 247.143 433.308 246.928 431.77 246.92C430.705 246.885 429.642 247.02 428.62 247.32C427.955 247.508 427.359 247.883 426.9 248.4C426.549 248.832 426.362 249.373 426.37 249.93C426.367 250.284 426.458 250.632 426.633 250.94C426.809 251.247 427.063 251.503 427.37 251.68C428.217 252.156 429.136 252.494 430.09 252.68C431.23 252.95 432.47 253.23 433.82 253.52C435.194 253.806 436.553 254.163 437.89 254.59C439.195 255.002 440.442 255.58 441.6 256.31C442.71 257.028 443.635 257.997 444.3 259.14C445.017 260.481 445.362 261.99 445.3 263.51C445.309 265.429 444.734 267.305 443.65 268.89C442.41 270.643 440.702 272.012 438.72 272.84C436.132 273.923 433.346 274.455 430.54 274.4Z" fill="#0A52D2"/>
<path d="M456.37 273.74V247.74H446.08V240.23H476.08V247.74H465.84V273.74H456.37Z" fill="#0A52D2"/>
<path d="M496 274.4C493.472 274.426 490.96 273.989 488.59 273.11C486.398 272.292 484.389 271.048 482.68 269.45C481.024 267.891 479.7 266.014 478.79 263.93C477.873 261.733 477.4 259.376 477.4 256.995C477.4 254.614 477.873 252.257 478.79 250.06C479.698 247.971 481.021 246.09 482.68 244.53C484.389 242.932 486.398 241.688 488.59 240.87C493.39 239.149 498.64 239.149 503.44 240.87C505.597 241.674 507.571 242.901 509.247 244.48C510.924 246.058 512.267 247.955 513.2 250.06C514.157 252.243 514.638 254.606 514.61 256.99C514.64 259.325 514.184 261.64 513.269 263.789C512.355 265.938 511.003 267.872 509.3 269.47C507.607 271.059 505.615 272.297 503.44 273.11C501.06 273.993 498.538 274.43 496 274.4ZM496 266.56C497.222 266.567 498.434 266.34 499.57 265.89C500.651 265.449 501.628 264.788 502.44 263.95C503.266 263.084 503.915 262.065 504.35 260.95C505.27 258.41 505.27 255.629 504.35 253.09C503.915 251.975 503.266 250.956 502.44 250.09C501.63 249.251 500.652 248.593 499.57 248.16C497.277 247.266 494.733 247.266 492.44 248.16C491.357 248.591 490.378 249.249 489.57 250.09C488.744 250.956 488.095 251.975 487.66 253.09C486.726 255.627 486.726 258.413 487.66 260.95C488.095 262.065 488.744 263.084 489.57 263.95C490.38 264.79 491.358 265.451 492.44 265.89C493.573 266.339 494.781 266.567 496 266.56Z" fill="#0A52D2"/>
<path d="M519.59 273.74V240.25H527.39L541.26 263.02H537.14L550.63 240.25H558.43L558.52 273.73H549.82L549.72 253.5H551.2L541.11 270.43H536.9L526.53 253.5H528.34V273.74H519.59Z" fill="#0A52D2"/>
<path d="M577 274.4C574.331 274.42 571.67 274.083 569.09 273.4C566.892 272.863 564.797 271.968 562.89 270.75L566 263.75C567.618 264.764 569.363 265.561 571.19 266.12C573.084 266.73 575.06 267.043 577.05 267.05C578.114 267.077 579.177 266.959 580.21 266.7C580.869 266.528 581.47 266.183 581.95 265.7C582.311 265.32 582.508 264.814 582.5 264.29C582.504 263.92 582.409 263.556 582.224 263.236C582.04 262.915 581.772 262.651 581.45 262.47C580.603 261.963 579.682 261.591 578.72 261.37C577.61 261.08 576.37 260.8 575.02 260.51C573.644 260.218 572.286 259.851 570.95 259.41C569.648 258.985 568.404 258.397 567.25 257.66C566.028 256.904 565.032 255.832 564.366 254.558C563.701 253.284 563.392 251.855 563.47 250.42C563.449 248.477 564.025 246.575 565.12 244.97C566.367 243.22 568.083 241.858 570.07 241.04C572.677 239.979 575.477 239.475 578.29 239.56C580.471 239.559 582.645 239.807 584.77 240.3C586.757 240.745 588.667 241.479 590.44 242.48L587.52 249.48C586.022 248.656 584.435 248.005 582.79 247.54C581.312 247.123 579.785 246.908 578.25 246.9C577.182 246.865 576.116 247 575.09 247.3C574.425 247.488 573.829 247.863 573.37 248.38C573.024 248.814 572.837 249.354 572.84 249.91C572.837 250.264 572.928 250.612 573.103 250.92C573.279 251.227 573.533 251.483 573.84 251.66C574.691 252.136 575.613 252.474 576.57 252.66C577.7 252.93 578.94 253.21 580.3 253.5C581.671 253.786 583.026 254.143 584.36 254.57C585.666 254.979 586.913 255.558 588.07 256.29C589.18 257.008 590.105 257.977 590.77 259.12C591.487 260.461 591.832 261.97 591.77 263.49C591.779 265.409 591.204 267.285 590.12 268.87C588.882 270.625 587.173 271.995 585.19 272.82C582.6 273.911 579.81 274.45 577 274.4Z" fill="#0A52D2"/>
<path d="M626.77 274.4C624.266 274.427 621.779 273.997 619.43 273.13C617.277 272.35 615.307 271.138 613.64 269.567C611.974 267.997 610.646 266.102 609.74 264C607.892 259.516 607.892 254.483 609.74 250C610.646 247.897 611.974 246.002 613.64 244.432C615.307 242.862 617.277 241.649 619.43 240.87C621.78 240.007 624.267 239.577 626.77 239.6C629.621 239.55 632.45 240.105 635.07 241.23C637.452 242.269 639.543 243.876 641.16 245.91L635.16 251.37C634.173 250.171 632.96 249.179 631.59 248.45C630.253 247.77 628.77 247.427 627.27 247.45C625.979 247.433 624.697 247.66 623.49 248.12C622.379 248.537 621.375 249.196 620.55 250.05C619.721 250.915 619.069 251.934 618.63 253.05C617.71 255.582 617.71 258.357 618.63 260.89C619.069 262.005 619.721 263.024 620.55 263.89C621.377 264.743 622.38 265.405 623.49 265.83C624.698 266.284 625.979 266.511 627.27 266.5C628.77 266.522 630.253 266.179 631.59 265.5C632.96 264.77 634.173 263.778 635.16 262.58L641.16 268.04C639.528 270.053 637.441 271.651 635.07 272.7C632.456 273.853 629.626 274.432 626.77 274.4Z" fill="#0A52D2"/>
<path d="M661.54 274.4C659.009 274.425 656.494 273.988 654.12 273.11C651.93 272.294 649.924 271.05 648.22 269.45C646.558 267.895 645.23 266.016 644.32 263.93C643.403 261.733 642.93 259.376 642.93 256.995C642.93 254.614 643.403 252.257 644.32 250.06C645.228 247.969 646.555 246.087 648.22 244.53C649.924 242.93 651.93 241.685 654.12 240.87C658.92 239.149 664.17 239.149 668.97 240.87C671.127 241.674 673.101 242.901 674.778 244.48C676.454 246.058 677.797 247.955 678.73 250.06C679.687 252.243 680.168 254.606 680.14 256.99C680.17 259.325 679.714 261.64 678.799 263.789C677.885 265.938 676.533 267.872 674.83 269.47C673.137 271.059 671.145 272.297 668.97 273.11C666.594 273.993 664.075 274.43 661.54 274.4ZM661.54 266.56C662.759 266.567 663.967 266.339 665.1 265.89C666.182 265.451 667.16 264.79 667.97 263.95C668.796 263.084 669.445 262.065 669.88 260.95C670.814 258.413 670.814 255.627 669.88 253.09C669.445 251.975 668.796 250.956 667.97 250.09C667.162 249.249 666.183 248.591 665.1 248.16C662.807 247.266 660.263 247.266 657.97 248.16C656.888 248.593 655.91 249.251 655.1 250.09C654.274 250.956 653.625 251.975 653.19 253.09C652.27 255.629 652.27 258.41 653.19 260.95C653.625 262.065 654.274 263.084 655.1 263.95C655.912 264.788 656.889 265.449 657.97 265.89C659.106 266.34 660.318 266.567 661.54 266.56Z" fill="#0A52D2"/>
<path d="M685.11 273.74V240.25H692.91L711.37 262.54H707.69V240.25H717V273.74H709.2L690.71 251.44H694.39V273.74H685.11Z" fill="#0A52D2"/>
<path d="M735.43 274.4C732.757 274.421 730.094 274.084 727.51 273.4C725.315 272.864 723.223 271.968 721.32 270.75L724.43 263.75C726.048 264.764 727.793 265.561 729.62 266.12C731.514 266.73 733.49 267.043 735.48 267.05C736.541 267.076 737.601 266.959 738.63 266.7C739.292 266.528 739.896 266.183 740.38 265.7C740.592 265.468 740.75 265.191 740.84 264.891C740.931 264.59 740.953 264.272 740.904 263.962C740.854 263.651 740.736 263.356 740.557 263.098C740.378 262.839 740.143 262.625 739.87 262.47C739.026 261.964 738.108 261.593 737.15 261.37C736.03 261.08 734.8 260.8 733.44 260.51C732.068 260.218 730.712 259.851 729.38 259.41C728.074 258.985 726.828 258.397 725.67 257.66C724.451 256.9 723.458 255.828 722.794 254.555C722.129 253.282 721.817 251.854 721.89 250.42C721.869 248.477 722.445 246.575 723.54 244.97C724.801 243.213 726.535 241.85 728.54 241.04C731.15 239.979 733.954 239.474 736.77 239.56C738.951 239.559 741.125 239.807 743.25 240.3C745.237 240.745 747.147 241.479 748.92 242.48L746 249.48C744.498 248.656 742.908 248.005 741.26 247.54C739.783 247.122 738.255 246.907 736.72 246.9C735.652 246.866 734.586 247.001 733.56 247.3C732.896 247.491 732.3 247.865 731.84 248.38C731.497 248.815 731.313 249.355 731.32 249.91C731.317 250.264 731.408 250.612 731.583 250.92C731.759 251.227 732.013 251.483 732.32 251.66C733.172 252.135 734.093 252.472 735.05 252.66C736.18 252.93 737.43 253.21 738.78 253.5C740.154 253.786 741.513 254.143 742.85 254.57C744.153 254.979 745.397 255.558 746.55 256.29C747.665 257.005 748.594 257.975 749.26 259.12C749.977 260.461 750.322 261.97 750.26 263.49C750.269 265.409 749.694 267.286 748.61 268.87C747.374 270.623 745.669 271.992 743.69 272.82C741.078 273.919 738.264 274.457 735.43 274.4Z" fill="#0A52D2"/>
<path d="M770.05 274.4C765.11 274.4 761.253 273.043 758.48 270.33C755.707 267.616 754.32 263.776 754.32 258.81V240.25H763.79V258.52C763.79 261.39 764.35 263.45 765.49 264.69C766.741 265.889 768.407 266.558 770.14 266.558C771.873 266.558 773.539 265.889 774.79 264.69C775.897 263.45 776.453 261.393 776.46 258.52V240.25H785.79V258.81C785.79 263.783 784.403 267.623 781.63 270.33C778.857 273.036 774.997 274.393 770.05 274.4Z" fill="#0A52D2"/>
<path d="M792.2 273.74V240.25H801.66V266.25H817.66V273.74H792.2Z" fill="#0A52D2"/>
<path d="M825.39 273.74V247.74H815.1V240.23H845.1V247.74H834.86V273.74H825.39Z" fill="#0A52D2"/>
<path d="M848.63 273.74V240.25H858.1V273.74H848.63Z" fill="#0A52D2"/>
<path d="M864.84 273.74V240.25H872.64L891.1 262.54H887.42V240.25H896.69V273.74H888.9L870.44 251.44H874.12V273.74H864.84Z" fill="#0A52D2"/>
<path d="M920.13 274.4C917.617 274.425 915.12 273.994 912.76 273.13C910.585 272.337 908.594 271.109 906.91 269.52C905.263 267.96 903.95 266.082 903.05 264C901.215 259.513 901.215 254.486 903.05 250C903.954 247.915 905.274 246.036 906.93 244.48C908.633 242.891 910.64 241.663 912.83 240.87C918.03 239.066 923.703 239.176 928.83 241.18C931.227 242.175 933.345 243.74 935 245.74L929 251.2C927.958 250.033 926.697 249.082 925.29 248.4C923.904 247.766 922.394 247.449 920.87 247.47C919.533 247.451 918.205 247.678 916.95 248.14C915.821 248.556 914.797 249.215 913.95 250.07C913.111 250.93 912.455 251.95 912.02 253.07C911.086 255.589 911.086 258.36 912.02 260.88C912.453 262.001 913.109 263.021 913.95 263.88C914.795 264.753 915.818 265.435 916.95 265.88C918.176 266.359 919.484 266.597 920.8 266.58C922.203 266.582 923.596 266.346 924.92 265.88C926.401 265.336 927.775 264.538 928.98 263.52L934.29 270.16C932.27 271.585 930.021 272.654 927.64 273.32C925.201 274.037 922.672 274.401 920.13 274.4ZM925.82 268.9V256.27H934.19V270.14L925.82 268.9Z" fill="#0A52D2"/>
</svg>
