<svg width="871" height="199" viewBox="0 0 871 199" fill="none" xmlns="http://www.w3.org/2000/svg">
<path d="M130.84 2.08044C120.226 7.90189 111.323 16.4046 105.02 26.7404H66.72H58.29L66.73 37.4604V133.74H38.49V26.7404H0V2.08044H130.84Z" fill="#080A09"/>
<path d="M373.36 103.39C363.89 119.74 347.29 135.74 318.29 135.74C292.12 135.74 271.79 127.42 260.06 108.02C267.47 97.9504 270.73 81.4804 271.91 73.7204C277.5 92.4804 298.77 110.87 318.29 110.87C324.708 110.803 330.987 108.985 336.449 105.614C341.911 102.244 346.351 97.4469 349.29 91.7404L373.36 103.39Z" fill="#080A09"/>
<path d="M210.29 29.8705C211.29 31.2205 212.38 32.5205 213.29 33.9305C214.319 35.3391 215.229 36.8309 216.01 38.3904C216.524 39.6851 216.919 41.024 217.19 42.3904C213.02 39.3404 211.74 34.5804 209.49 30.3904L210.29 29.8705ZM310.07 4.74045C280.68 4.74045 258.73 21.5204 246.71 50.2104C227.71 95.5304 216.84 99.6204 210.71 103.97C201.921 108.795 192.046 111.294 182.02 111.23C158.14 111.23 140.77 92.8704 140.77 67.9904C140.725 62.2778 141.524 56.5899 143.14 51.1104C143.856 51.6343 144.653 52.0363 145.5 52.3004C145.61 52.1904 145.71 52.0705 145.81 51.9505C146.164 52.0542 146.525 52.1344 146.89 52.1904C147.76 53.9004 147.66 54.6704 146.25 55.9604C144.84 57.2504 145.76 58.8005 145.09 60.0905C145 60.2605 145.29 60.6604 145.45 60.9104C145.93 61.6004 146.5 62.2504 146.91 62.9704C147.85 64.6604 148.56 66.4704 150.62 67.2704C151.07 67.4465 151.448 67.7669 151.696 68.1813C151.944 68.5958 152.048 69.0809 151.99 69.5605C151.86 71.6905 151.88 73.8205 151.83 75.9505C151.83 77.2605 151.73 78.5805 151.71 79.9005C151.71 81.7405 151.71 83.6004 151.71 85.7404C151.98 85.1604 152.12 84.8404 152.27 84.5304C152.06 85.6904 153.27 87.1305 151.9 87.7605C152.01 88.6605 152.09 89.4105 152.16 90.1505C152.16 90.3805 152.16 90.7005 152.3 90.8105C153.74 91.8105 153.23 94.1604 155.35 94.9204C156.64 95.3904 157.08 95.8304 158.27 94.6904C155.85 93.4404 155.39 91.9504 156.76 89.5704C157.12 88.9504 157.17 88.5704 156.46 88.2104C155.75 87.8504 155.66 87.3304 156.46 86.8204C156.7 86.6704 156.8 86.3305 156.93 86.0405C157.12 85.5905 157.28 85.1104 157.47 84.6104L156.47 83.6104H158.1C158.16 83.0704 158.21 82.6104 158.28 82.0704C161.01 81.7804 161.28 81.4304 160.68 79.3504C161.448 79.0678 162.167 78.6663 162.81 78.1604C163.562 77.16 164.231 76.0998 164.81 74.9904C164.98 74.7004 165.3 74.3404 165.22 74.1104C164.59 71.9504 166.58 71.2004 167.61 71.0504C169.73 70.7304 170.03 69.3805 170.22 67.9005C170.34 65.848 171.142 63.8945 172.5 62.3504C172.664 61.9895 172.73 61.5922 172.693 61.1976C172.657 60.803 172.518 60.4249 172.29 60.1004C171.016 59.4051 169.676 58.8389 168.29 58.4104C167.77 58.2004 167.29 58.0005 166.7 57.8405C165.5 57.4905 164.3 57.1705 163.15 56.8405C163.24 56.7305 163.51 56.3504 163.75 56.0304C163.11 54.5704 162.44 53.3404 160.67 53.1004C159.833 52.8794 159.039 52.5212 158.32 52.0405C157.333 51.4313 156.315 50.8739 155.27 50.3705C154.69 50.1405 153.92 50.4405 153.27 50.3705C152.485 50.1861 151.713 49.9489 150.96 49.6604C150.96 49.5904 151.02 49.3604 151.11 48.9104C150.25 49.5304 149.51 50.0404 148.83 50.5204C148.565 50.0204 148.228 49.5621 147.83 49.1604C147.06 48.4304 146.26 47.9004 146.27 46.7404C146.28 45.5804 147 44.7404 146.89 43.5804C146.86 43.2348 146.773 42.8967 146.63 42.5804C146.83 42.2104 147.03 41.8205 147.24 41.4505C147.59 40.8305 147.95 40.2304 148.34 39.6404C148.88 38.7904 149.45 37.9605 150.07 37.1505C150.69 36.3405 151.2 35.6604 151.81 34.9404C152.901 33.7073 154.063 32.5386 155.29 31.4404C155.396 31.329 155.509 31.2254 155.63 31.1304C156.48 30.3404 157.38 29.5804 158.31 28.8604C158.78 28.4804 159.31 28.1204 159.76 27.7704C161.042 26.8181 162.378 25.94 163.76 25.1404C164.12 24.9204 164.49 24.7004 164.88 24.4904C169.799 21.81 175.051 19.7925 180.5 18.4904C181.84 18.1704 183.15 17.9004 184.5 17.6704C184.651 18.0132 184.821 18.3471 185.01 18.6704C185.264 19.1704 185.631 19.6049 186.08 19.9404C186.593 20.2298 187.171 20.3846 187.76 20.3904C189.86 20.5204 191.91 19.8604 194.02 19.7104C195.18 19.6304 196.65 19.9404 196.94 21.0804C197.23 22.2204 195.94 23.5504 196.47 24.6604C196.659 24.9932 196.927 25.2747 197.25 25.4805C197.85 25.9405 198.47 26.3904 199.1 26.8204C199.087 27.0069 199.087 27.194 199.1 27.3804C199.1 28.3804 198.56 28.3804 197.79 27.9304C196.57 27.2704 195.32 26.6404 194.07 26.0704C193.37 25.7704 192.62 25.6304 191.9 25.4004C192.075 25.2885 192.242 25.1649 192.4 25.0304C192.11 24.1704 191.73 22.5704 191.5 22.5704C189.153 22.7459 186.816 23.043 184.5 23.4604C183.17 23.6804 181.85 23.9904 180.17 24.3204C179.3 25.5304 177.17 26.6004 177.05 29.0304C177.05 29.2904 176.59 29.6004 176.29 29.7404C174.08 30.7404 173.29 32.9404 172.12 34.8204C172.025 35.1449 172.001 35.4859 172.05 35.8204C172.05 37.1404 171.98 38.4704 172.05 39.8204C172.133 40.8905 172.397 41.9386 172.83 42.9204C173.366 43.974 174.091 44.9198 174.97 45.7104C176.22 46.8104 177.6 48.3105 179.06 48.4505C181.14 48.6705 183.37 47.8805 185.49 47.4505C186.67 47.2005 187.72 46.7805 188.49 48.2005C188.67 48.5305 189.38 48.6904 189.84 48.7104C191.73 48.7104 191.93 49.0805 191.62 50.9805C191.47 51.9805 191.26 53.4305 191.79 53.9805C193.375 55.5745 194.33 57.6876 194.48 59.9305C194.46 60.5868 194.346 61.2369 194.14 61.8604C193.83 63.2804 193.08 64.7804 193.29 66.1104C193.76 68.2062 194.43 70.2522 195.29 72.2204C195.48 72.8304 195.79 73.4105 196.01 74.0405C196.46 75.3105 196.8 76.6304 197.32 77.8904C197.57 78.4704 198.22 79.4404 198.53 79.3904C201.27 78.8304 204.21 79.1404 206.41 76.5504C207.97 74.7304 208.03 71.8904 210.54 70.7804C210.79 70.6804 210.93 69.7804 210.76 69.4204C209.76 67.1604 211.51 66.3604 212.85 65.5204C215.14 64.0404 215.67 62.1204 214.61 59.5204C213.89 57.7404 213.61 55.7805 215.22 54.2005C216.57 52.8205 218.03 51.5405 219.45 50.2005C221.554 48.3419 222.924 45.7913 223.31 43.0105C221.71 43.3305 220.31 43.5404 219.02 43.8904C217.73 44.2404 217.2 43.8204 217.28 42.5304C217.99 42.2604 218.7 41.9804 219.41 41.7204C222.96 40.4404 226.41 39.1104 228.69 35.7204C229.48 34.5604 229 34.0005 228.13 33.4005C227.44 32.9205 226.76 32.4004 226.13 31.9304L223.45 33.3604C222.78 32.4804 222.17 31.6904 221.6 30.9604C222.156 30.8494 222.69 30.6466 223.18 30.3604C224.25 29.7104 225.06 28.6304 226.18 28.1404C226.796 27.9733 227.392 27.7421 227.96 27.4505C228.31 27.2012 228.579 26.853 228.73 26.4505C231.657 28.1107 234.437 30.0176 237.04 32.1505C227.78 15.7705 211.04 0.000448307 181.97 0.000448307C175.185 -0.0224865 168.425 0.834657 161.86 2.55044C159.44 3.18316 157.054 3.93746 154.71 4.81045L153.07 5.46045C142.38 9.7154 132.999 16.7098 125.87 25.7404C117.08 37.0004 111.93 51.4304 111.93 68.0304C111.93 108.5 142.54 136.14 182.01 136.14C206.01 136.14 221.55 133.96 246.25 105.83C271.46 77.1404 255.67 21.5504 321.25 22.9204C338.58 23.2804 364.31 36.5404 365.11 36.9204C355.86 20.5604 339.08 4.74045 310.07 4.74045Z" fill="#080A09"/>
<path d="M10.38 197.74V171.74H0.0999756V164.23H30.1V171.74H19.85V197.74H10.38Z" fill="#0A52D2"/>
<path d="M43 190.41H60.51V197.74H33.63V164.25H59.88V171.57H43V190.41ZM42.33 177.21H57.88V184.29H42.33V177.21Z" fill="#0A52D2"/>
<path d="M65.77 197.74V164.25H81.07C83.7883 164.188 86.4895 164.696 89 165.74C91.0936 166.635 92.8801 168.123 94.14 170.02C95.3958 171.996 96.0426 174.298 96 176.64C96.0828 178.933 95.4547 181.196 94.2016 183.119C92.9485 185.041 91.1317 186.53 89 187.38C86.4881 188.403 83.7917 188.897 81.08 188.83H71L75.21 184.83V197.74H65.77ZM75.24 185.88L71 181.52H80.47C82.0512 181.642 83.6226 181.183 84.89 180.23C85.3816 179.775 85.7671 179.217 86.0194 178.597C86.2717 177.977 86.3846 177.309 86.35 176.64C86.3886 175.963 86.2777 175.286 86.0254 174.657C85.7731 174.028 85.3855 173.462 84.89 173C83.6265 172.064 82.0674 171.617 80.5 171.74H71L75.21 167.39L75.24 185.88ZM86.48 197.74L78.15 185.54H88.25L96.61 197.74H86.48Z" fill="#0A52D2"/>
<path d="M101.16 197.74V164.25H109L122.87 187.02H118.76L132.25 164.25H140L140.1 197.73H131.39L131.3 177.5H132.78L122.69 194.43H118.48L108.1 177.5H109.92V197.74H101.16Z" fill="#0A52D2"/>
<path d="M146.78 197.74V164.25H156.25V197.74H146.78Z" fill="#0A52D2"/>
<path d="M163 197.74V164.25H170.79L189.25 186.54H185.57V164.25H194.85V197.74H187.05L168.59 175.44H172.27V197.74H163Z" fill="#0A52D2"/>
<path d="M197.53 197.74L212.3 164.26H221.63L236.46 197.74H226.6L215 168.89H218.73L207.19 197.74H197.53ZM205.61 191.24L208.05 184.24H224.4L226.84 191.24H205.61Z" fill="#0A52D2"/>
<path d="M239.13 197.74V164.25H248.6V190.25H264.6V197.74H239.13Z" fill="#0A52D2"/>
<path d="M298.91 198.4C296.407 198.425 293.919 197.995 291.57 197.13C289.402 196.333 287.419 195.105 285.74 193.52C284.096 191.959 282.786 190.081 281.89 188C280.042 183.516 280.042 178.483 281.89 174C282.786 171.918 284.096 170.04 285.74 168.48C287.419 166.894 289.402 165.666 291.57 164.87C293.921 164.009 296.407 163.579 298.91 163.6C301.761 163.549 304.59 164.104 307.21 165.23C309.595 166.269 311.689 167.875 313.31 169.91L307.31 175.37C306.327 174.172 305.117 173.179 303.75 172.45C302.41 171.769 300.923 171.426 299.42 171.45C298.132 171.433 296.853 171.66 295.65 172.12C294.537 172.54 293.53 173.198 292.7 174.05C291.874 174.916 291.225 175.935 290.79 177.05C289.87 179.582 289.87 182.357 290.79 184.89C291.225 186.005 291.874 187.024 292.7 187.89C293.533 188.741 294.539 189.402 295.65 189.83C296.854 190.284 298.133 190.512 299.42 190.5C300.923 190.523 302.409 190.18 303.75 189.5C305.117 188.77 306.327 187.778 307.31 186.58L313.31 192.04C311.674 194.054 309.584 195.651 307.21 196.7C304.596 197.853 301.766 198.432 298.91 198.4Z" fill="#0A52D2"/>
<path d="M332.63 198.4C327.69 198.4 323.833 197.043 321.06 194.33C318.287 191.616 316.9 187.776 316.9 182.81V164.25H326.37V182.52C326.37 185.39 326.93 187.45 328.07 188.69C329.321 189.889 330.987 190.558 332.72 190.558C334.453 190.558 336.119 189.889 337.37 188.69C338.483 187.45 339.04 185.393 339.04 182.52V164.25H348.37V182.81C348.37 187.783 346.983 191.623 344.21 194.33C341.437 197.036 337.577 198.393 332.63 198.4Z" fill="#0A52D2"/>
<path d="M366.54 198.4C363.871 198.42 361.21 198.083 358.63 197.4C356.432 196.863 354.337 195.968 352.43 194.75L355.54 187.75C357.158 188.764 358.903 189.561 360.73 190.12C362.624 190.73 364.6 191.043 366.59 191.05C367.654 191.077 368.717 190.959 369.75 190.7C370.408 190.526 371.008 190.181 371.49 189.7C371.851 189.32 372.048 188.814 372.04 188.29C372.044 187.92 371.949 187.556 371.764 187.236C371.58 186.916 371.312 186.651 370.99 186.47C370.143 185.963 369.222 185.592 368.26 185.37C367.15 185.08 365.91 184.8 364.56 184.51C363.184 184.218 361.825 183.851 360.49 183.41C359.184 182.986 357.938 182.397 356.78 181.66C355.561 180.905 354.567 179.837 353.902 178.567C353.237 177.297 352.925 175.871 353 174.44C352.979 172.497 353.555 170.595 354.65 168.99C355.897 167.24 357.613 165.878 359.6 165.06C362.207 163.999 365.007 163.495 367.82 163.58C370.001 163.579 372.175 163.827 374.3 164.32C376.287 164.765 378.197 165.499 379.97 166.5L377.05 173.5C375.552 172.676 373.965 172.025 372.32 171.56C370.839 171.143 369.308 170.928 367.77 170.92C366.705 170.885 365.642 171.02 364.62 171.32C363.955 171.508 363.359 171.883 362.9 172.4C362.549 172.832 362.362 173.373 362.37 173.93C362.367 174.284 362.458 174.632 362.633 174.94C362.809 175.247 363.063 175.503 363.37 175.68C364.217 176.156 365.136 176.494 366.09 176.68C367.23 176.95 368.47 177.23 369.82 177.52C371.194 177.806 372.553 178.163 373.89 178.59C375.195 179.002 376.442 179.58 377.6 180.31C378.71 181.028 379.635 181.997 380.3 183.14C381.017 184.481 381.362 185.99 381.3 187.51C381.309 189.429 380.734 191.306 379.65 192.89C378.41 194.643 376.702 196.012 374.72 196.84C372.132 197.923 369.346 198.455 366.54 198.4Z" fill="#0A52D2"/>
<path d="M392.37 197.74V171.74H382.08V164.23H412.08V171.74H401.84V197.74H392.37Z" fill="#0A52D2"/>
<path d="M432 198.4C429.472 198.426 426.96 197.989 424.59 197.11C422.398 196.292 420.389 195.048 418.68 193.45C417.024 191.891 415.7 190.014 414.79 187.93C413.873 185.733 413.4 183.376 413.4 180.995C413.4 178.614 413.873 176.257 414.79 174.06C415.698 171.971 417.021 170.09 418.68 168.53C420.389 166.932 422.398 165.688 424.59 164.87C429.39 163.149 434.64 163.149 439.44 164.87C441.597 165.674 443.571 166.901 445.247 168.48C446.924 170.058 448.267 171.955 449.2 174.06C450.157 176.243 450.638 178.606 450.61 180.99C450.64 183.325 450.184 185.64 449.269 187.789C448.355 189.938 447.003 191.872 445.3 193.47C443.607 195.059 441.615 196.297 439.44 197.11C437.06 197.993 434.538 198.43 432 198.4ZM432 190.56C433.222 190.567 434.434 190.34 435.57 189.89C436.651 189.449 437.628 188.788 438.44 187.95C439.266 187.084 439.915 186.065 440.35 184.95C441.27 182.41 441.27 179.629 440.35 177.09C439.915 175.975 439.266 174.956 438.44 174.09C437.63 173.251 436.652 172.593 435.57 172.16C433.277 171.266 430.733 171.266 428.44 172.16C427.357 172.591 426.378 173.249 425.57 174.09C424.744 174.956 424.095 175.975 423.66 177.09C422.726 179.627 422.726 182.413 423.66 184.95C424.095 186.065 424.744 187.084 425.57 187.95C426.38 188.79 427.358 189.451 428.44 189.89C429.573 190.339 430.781 190.567 432 190.56Z" fill="#0A52D2"/>
<path d="M455.59 197.74V164.25H463.39L477.26 187.02H473.14L486.63 164.25H494.43L494.52 197.73H485.82L485.72 177.5H487.2L477.11 194.43H472.9L462.53 177.5H464.34V197.74H455.59Z" fill="#0A52D2"/>
<path d="M513 198.4C510.331 198.42 507.67 198.083 505.09 197.4C502.892 196.863 500.797 195.968 498.89 194.75L502 187.75C503.618 188.764 505.363 189.561 507.19 190.12C509.084 190.73 511.06 191.043 513.05 191.05C514.114 191.077 515.177 190.959 516.21 190.7C516.869 190.528 517.47 190.183 517.95 189.7C518.311 189.32 518.508 188.814 518.5 188.29C518.504 187.92 518.409 187.556 518.224 187.236C518.04 186.916 517.772 186.651 517.45 186.47C516.603 185.963 515.682 185.592 514.72 185.37C513.61 185.08 512.37 184.8 511.02 184.51C509.644 184.218 508.286 183.851 506.95 183.41C505.648 182.985 504.404 182.397 503.25 181.66C502.028 180.904 501.032 179.832 500.366 178.558C499.701 177.284 499.392 175.855 499.47 174.42C499.449 172.477 500.025 170.575 501.12 168.97C502.367 167.22 504.083 165.858 506.07 165.04C508.677 163.979 511.477 163.475 514.29 163.56C516.471 163.559 518.645 163.807 520.77 164.3C522.757 164.745 524.667 165.479 526.44 166.48L523.52 173.48C522.022 172.656 520.435 172.005 518.79 171.54C517.312 171.123 515.785 170.908 514.25 170.9C513.182 170.866 512.116 171.001 511.09 171.3C510.425 171.488 509.829 171.863 509.37 172.38C509.024 172.814 508.837 173.354 508.84 173.91C508.837 174.264 508.928 174.612 509.103 174.92C509.279 175.227 509.533 175.483 509.84 175.66C510.691 176.136 511.613 176.474 512.57 176.66C513.7 176.93 514.94 177.21 516.3 177.5C517.671 177.786 519.026 178.143 520.36 178.57C521.666 178.979 522.913 179.558 524.07 180.29C525.18 181.008 526.105 181.977 526.77 183.12C527.487 184.461 527.832 185.97 527.77 187.49C527.779 189.409 527.204 191.286 526.12 192.87C524.882 194.625 523.173 195.995 521.19 196.82C518.6 197.912 515.81 198.45 513 198.4Z" fill="#0A52D2"/>
<path d="M562.77 198.4C560.266 198.427 557.779 197.997 555.43 197.13C553.277 196.35 551.307 195.138 549.64 193.567C547.974 191.997 546.646 190.102 545.74 188C543.892 183.516 543.892 178.483 545.74 174C546.646 171.897 547.974 170.002 549.64 168.432C551.307 166.862 553.277 165.649 555.43 164.87C557.78 164.007 560.267 163.577 562.77 163.6C565.621 163.55 568.45 164.106 571.07 165.23C573.452 166.269 575.543 167.876 577.16 169.91L571.16 175.37C570.173 174.171 568.96 173.179 567.59 172.45C566.253 171.77 564.77 171.427 563.27 171.45C561.979 171.433 560.697 171.66 559.49 172.12C558.379 172.537 557.375 173.196 556.55 174.05C555.721 174.915 555.069 175.934 554.63 177.05C553.71 179.582 553.71 182.357 554.63 184.89C555.069 186.005 555.721 187.024 556.55 187.89C557.377 188.743 558.38 189.405 559.49 189.83C560.698 190.284 561.979 190.511 563.27 190.5C564.77 190.522 566.253 190.179 567.59 189.5C568.96 188.77 570.173 187.778 571.16 186.58L577.16 192.04C575.528 194.054 573.441 195.651 571.07 196.7C568.456 197.853 565.626 198.432 562.77 198.4Z" fill="#0A52D2"/>
<path d="M597.54 198.4C595.009 198.425 592.494 197.988 590.12 197.11C587.93 196.294 585.924 195.05 584.22 193.45C582.558 191.895 581.23 190.016 580.32 187.93C579.403 185.733 578.93 183.376 578.93 180.995C578.93 178.614 579.403 176.257 580.32 174.06C581.228 171.969 582.555 170.087 584.22 168.53C585.924 166.93 587.93 165.685 590.12 164.87C594.92 163.149 600.17 163.149 604.97 164.87C607.127 165.674 609.101 166.901 610.778 168.48C612.454 170.058 613.797 171.955 614.73 174.06C615.687 176.243 616.168 178.606 616.14 180.99C616.17 183.325 615.714 185.64 614.799 187.789C613.885 189.938 612.533 191.872 610.83 193.47C609.137 195.059 607.145 196.297 604.97 197.11C602.594 197.993 600.075 198.43 597.54 198.4ZM597.54 190.56C598.759 190.567 599.967 190.339 601.1 189.89C602.182 189.451 603.16 188.79 603.97 187.95C604.796 187.084 605.445 186.065 605.88 184.95C606.814 182.413 606.814 179.627 605.88 177.09C605.445 175.975 604.796 174.956 603.97 174.09C603.162 173.249 602.183 172.591 601.1 172.16C598.807 171.266 596.263 171.266 593.97 172.16C592.888 172.593 591.91 173.251 591.1 174.09C590.274 174.956 589.625 175.975 589.19 177.09C588.27 179.629 588.27 182.41 589.19 184.95C589.625 186.065 590.274 187.084 591.1 187.95C591.912 188.788 592.889 189.449 593.97 189.89C595.106 190.34 596.318 190.567 597.54 190.56Z" fill="#0A52D2"/>
<path d="M621.11 197.74V164.25H628.91L647.37 186.54H643.69V164.25H653V197.74H645.2L626.71 175.44H630.39V197.74H621.11Z" fill="#0A52D2"/>
<path d="M671.43 198.4C668.757 198.421 666.094 198.084 663.51 197.4C661.315 196.864 659.223 195.968 657.32 194.75L660.43 187.75C662.048 188.764 663.793 189.561 665.62 190.12C667.514 190.73 669.49 191.043 671.48 191.05C672.541 191.076 673.601 190.959 674.63 190.7C675.292 190.528 675.896 190.183 676.38 189.7C676.592 189.468 676.75 189.191 676.84 188.891C676.931 188.59 676.953 188.272 676.904 187.962C676.854 187.651 676.736 187.356 676.557 187.098C676.378 186.839 676.143 186.625 675.87 186.47C675.026 185.964 674.108 185.593 673.15 185.37C672.03 185.08 670.8 184.8 669.44 184.51C668.068 184.218 666.712 183.851 665.38 183.41C664.074 182.986 662.828 182.398 661.67 181.66C660.451 180.9 659.458 179.828 658.794 178.555C658.129 177.282 657.817 175.854 657.89 174.42C657.869 172.477 658.445 170.575 659.54 168.97C660.801 167.213 662.535 165.85 664.54 165.04C667.15 163.979 669.954 163.474 672.77 163.56C674.951 163.559 677.125 163.808 679.25 164.3C681.237 164.745 683.147 165.479 684.92 166.48L682 173.48C680.498 172.656 678.908 172.005 677.26 171.54C675.783 171.122 674.255 170.907 672.72 170.9C671.652 170.866 670.586 171.001 669.56 171.3C668.896 171.491 668.3 171.865 667.84 172.38C667.497 172.815 667.313 173.355 667.32 173.91C667.317 174.264 667.408 174.612 667.583 174.92C667.759 175.227 668.013 175.483 668.32 175.66C669.172 176.135 670.093 176.472 671.05 176.66C672.18 176.93 673.43 177.21 674.78 177.5C676.154 177.786 677.513 178.143 678.85 178.57C680.153 178.98 681.397 179.558 682.55 180.29C683.665 181.005 684.594 181.975 685.26 183.12C685.977 184.461 686.322 185.97 686.26 187.49C686.269 189.409 685.694 191.286 684.61 192.87C683.374 194.623 681.669 195.992 679.69 196.82C677.078 197.919 674.264 198.457 671.43 198.4Z" fill="#0A52D2"/>
<path d="M706.05 198.4C701.11 198.4 697.253 197.043 694.48 194.33C691.707 191.616 690.32 187.776 690.32 182.81V164.25H699.79V182.52C699.79 185.39 700.35 187.45 701.49 188.69C702.741 189.889 704.407 190.558 706.14 190.558C707.873 190.558 709.539 189.889 710.79 188.69C711.897 187.45 712.453 185.393 712.46 182.52V164.25H721.79V182.81C721.79 187.783 720.403 191.623 717.63 194.33C714.857 197.036 710.997 198.393 706.05 198.4Z" fill="#0A52D2"/>
<path d="M728.2 197.74V164.25H737.66V190.25H753.66V197.74H728.2Z" fill="#0A52D2"/>
<path d="M761.39 197.74V171.74H751.1V164.23H781.1V171.74H770.86V197.74H761.39Z" fill="#0A52D2"/>
<path d="M784.63 197.74V164.25H794.1V197.74H784.63Z" fill="#0A52D2"/>
<path d="M800.84 197.74V164.25H808.64L827.1 186.54H823.42V164.25H832.69V197.74H824.9L806.44 175.44H810.12V197.74H800.84Z" fill="#0A52D2"/>
<path d="M856.13 198.4C853.617 198.425 851.12 197.994 848.76 197.13C846.585 196.337 844.594 195.109 842.91 193.52C841.263 191.96 839.95 190.082 839.05 188C837.215 183.513 837.215 178.486 839.05 174C839.954 171.915 841.274 170.036 842.93 168.48C844.633 166.891 846.64 165.663 848.83 164.87C854.03 163.066 859.703 163.176 864.83 165.18C867.227 166.175 869.345 167.74 871 169.74L865 175.2C863.958 174.033 862.697 173.082 861.29 172.4C859.904 171.766 858.394 171.449 856.87 171.47C855.533 171.451 854.205 171.678 852.95 172.14C851.821 172.556 850.797 173.215 849.95 174.07C849.111 174.93 848.455 175.95 848.02 177.07C847.086 179.589 847.086 182.36 848.02 184.88C848.453 186.001 849.109 187.021 849.95 187.88C850.795 188.753 851.818 189.435 852.95 189.88C854.176 190.359 855.484 190.597 856.8 190.58C858.203 190.582 859.596 190.346 860.92 189.88C862.401 189.336 863.775 188.538 864.98 187.52L870.29 194.16C868.27 195.585 866.021 196.654 863.64 197.32C861.201 198.037 858.672 198.401 856.13 198.4ZM861.82 192.9V180.27H870.19V194.14L861.82 192.9Z" fill="#0A52D2"/>
</svg>
